<mxfile host="app.diagrams.net" modified="2024-06-20T09:32:39.463Z" agent="Mozilla/5.0 (Windows NT 10.0; Win64; x64) AppleWebKit/537.36 (KHTML, like Gecko) Chrome/126.0.0.0 Safari/537.36" etag="Fdm6mHqDR5csM2M6Nddc" version="24.5.5" type="github">
  <diagram name="第 1 页" id="xFIM4VSlBU6MoDrpDSpR">
    <mxGraphModel dx="9758" dy="3412" grid="1" gridSize="10" guides="1" tooltips="1" connect="1" arrows="1" fold="1" page="1" pageScale="1" pageWidth="850" pageHeight="1100" math="0" shadow="0">
      <root>
        <mxCell id="0" />
        <mxCell id="1" parent="0" />
        <mxCell id="nrmPXeRd82tsvhJIg-Bl-1" value="" style="group;" vertex="1" connectable="0" parent="1">
          <mxGeometry x="-2000" y="470" width="1400" height="534.5" as="geometry" />
        </mxCell>
        <mxCell id="nrmPXeRd82tsvhJIg-Bl-2" value="&lt;font style=&quot;font-size: 20px&quot;&gt;Top&lt;/font&gt;" style="rounded=0;whiteSpace=wrap;html=1;strokeColor=#23445d;fillColor=#bac8d3;shadow=0;glass=0;sketch=0;verticalAlign=top;" vertex="1" parent="nrmPXeRd82tsvhJIg-Bl-1">
          <mxGeometry x="-272.96" y="80" width="1492.96" height="454.5" as="geometry" />
        </mxCell>
        <mxCell id="nrmPXeRd82tsvhJIg-Bl-3" value="&lt;font style=&quot;font-size: 20px&quot;&gt;case_n&lt;/font&gt;" style="rounded=0;whiteSpace=wrap;html=1;strokeColor=#6c8ebf;fillColor=#dae8fc;shadow=0;glass=0;sketch=0;verticalAlign=top;" vertex="1" parent="nrmPXeRd82tsvhJIg-Bl-1">
          <mxGeometry x="-246.54" y="120" width="1435.22" height="324.5" as="geometry" />
        </mxCell>
        <mxCell id="nrmPXeRd82tsvhJIg-Bl-4" value="&lt;font style=&quot;font-size: 20px&quot;&gt;env&lt;/font&gt;" style="rounded=0;whiteSpace=wrap;html=1;strokeColor=#9673a6;fillColor=#e1d5e7;shadow=0;glass=0;sketch=0;verticalAlign=top;" vertex="1" parent="nrmPXeRd82tsvhJIg-Bl-1">
          <mxGeometry x="-202.52" y="170" width="1362.52" height="259.5" as="geometry" />
        </mxCell>
        <mxCell id="nrmPXeRd82tsvhJIg-Bl-5" value="&lt;font style=&quot;font-size: 20px&quot;&gt;axis_w_slv&lt;/font&gt;" style="rounded=0;whiteSpace=wrap;html=1;fillColor=#b1ddf0;align=center;verticalAlign=top;horizontal=1;labelPosition=center;verticalLabelPosition=middle;" vertex="1" parent="nrmPXeRd82tsvhJIg-Bl-1">
          <mxGeometry x="810.062893081761" y="260" width="149.68553459119497" height="130" as="geometry" />
        </mxCell>
        <mxCell id="nrmPXeRd82tsvhJIg-Bl-6" value="&lt;font style=&quot;font-size: 20px&quot;&gt;axis_r_slv&lt;/font&gt;" style="rounded=0;whiteSpace=wrap;html=1;fillColor=#b1ddf0;align=center;verticalAlign=top;horizontal=1;labelPosition=center;verticalLabelPosition=middle;" vertex="1" parent="nrmPXeRd82tsvhJIg-Bl-1">
          <mxGeometry x="616.3522012578617" y="260" width="149.68553459119497" height="130" as="geometry" />
        </mxCell>
        <mxCell id="nrmPXeRd82tsvhJIg-Bl-7" value="&lt;font style=&quot;font-size: 20px&quot;&gt;axis_cmd&lt;/font&gt;" style="rounded=0;whiteSpace=wrap;html=1;align=center;verticalAlign=top;horizontal=1;labelPosition=center;verticalLabelPosition=middle;fillColor=#b1ddf0;" vertex="1" parent="nrmPXeRd82tsvhJIg-Bl-1">
          <mxGeometry x="290.5660377358491" y="260" width="167.29559748427673" height="160" as="geometry" />
        </mxCell>
        <mxCell id="nrmPXeRd82tsvhJIg-Bl-8" value="&lt;font style=&quot;font-size: 20px&quot;&gt;DUT&lt;/font&gt;" style="rounded=0;whiteSpace=wrap;html=1;shadow=0;glass=0;sketch=0;verticalAlign=middle;align=center;dashed=1;fontColor=#ffffff;fillColor=#e0a4a2;dashPattern=1 4;" vertex="1" parent="nrmPXeRd82tsvhJIg-Bl-1">
          <mxGeometry x="521.6981132075472" y="470" width="110.062893081761" height="40" as="geometry" />
        </mxCell>
        <mxCell id="nrmPXeRd82tsvhJIg-Bl-9" value="" style="endArrow=none;html=1;exitX=1;exitY=0.5;exitDx=0;exitDy=0;" edge="1" parent="nrmPXeRd82tsvhJIg-Bl-1" source="nrmPXeRd82tsvhJIg-Bl-8">
          <mxGeometry width="50" height="50" relative="1" as="geometry">
            <mxPoint x="642.7672955974843" y="489.76" as="sourcePoint" />
            <mxPoint x="1190" y="490" as="targetPoint" />
          </mxGeometry>
        </mxCell>
        <mxCell id="nrmPXeRd82tsvhJIg-Bl-10" value="" style="endArrow=blockThin;html=1;exitX=0.5;exitY=1;exitDx=0;exitDy=0;endFill=1;" edge="1" parent="nrmPXeRd82tsvhJIg-Bl-1" source="nrmPXeRd82tsvhJIg-Bl-29">
          <mxGeometry width="50" height="50" relative="1" as="geometry">
            <mxPoint x="369.811320754717" y="440" as="sourcePoint" />
            <mxPoint x="344.27672955974845" y="490" as="targetPoint" />
          </mxGeometry>
        </mxCell>
        <mxCell id="nrmPXeRd82tsvhJIg-Bl-11" value="&lt;font style=&quot;font-size: 14px&quot;&gt;axis_cmd&lt;/font&gt;" style="edgeLabel;html=1;align=center;verticalAlign=middle;resizable=0;points=[];fontSize=12;" vertex="1" connectable="0" parent="nrmPXeRd82tsvhJIg-Bl-10">
          <mxGeometry x="0.2757" relative="1" as="geometry">
            <mxPoint x="-0.28" y="-9.39" as="offset" />
          </mxGeometry>
        </mxCell>
        <mxCell id="nrmPXeRd82tsvhJIg-Bl-12" value="" style="endArrow=classic;html=1;entryX=0.5;entryY=1;entryDx=0;entryDy=0;edgeStyle=orthogonalEdgeStyle;" edge="1" parent="nrmPXeRd82tsvhJIg-Bl-1" target="nrmPXeRd82tsvhJIg-Bl-47">
          <mxGeometry width="50" height="50" relative="1" as="geometry">
            <mxPoint x="343.39622641509436" y="410" as="sourcePoint" />
            <mxPoint x="431.44654088050316" y="370" as="targetPoint" />
          </mxGeometry>
        </mxCell>
        <mxCell id="nrmPXeRd82tsvhJIg-Bl-13" value="" style="endArrow=classic;html=1;exitX=1;exitY=0.5;exitDx=0;exitDy=0;entryX=0;entryY=0.5;entryDx=0;entryDy=0;" edge="1" parent="nrmPXeRd82tsvhJIg-Bl-1" source="nrmPXeRd82tsvhJIg-Bl-47" target="nrmPXeRd82tsvhJIg-Bl-54">
          <mxGeometry width="50" height="50" relative="1" as="geometry">
            <mxPoint x="449.0566037735849" y="332.25" as="sourcePoint" />
            <mxPoint x="501.88679245299437" y="332.25" as="targetPoint" />
          </mxGeometry>
        </mxCell>
        <mxCell id="nrmPXeRd82tsvhJIg-Bl-14" value="" style="group" vertex="1" connectable="0" parent="nrmPXeRd82tsvhJIg-Bl-1">
          <mxGeometry x="-239" y="-283" width="700" height="130" as="geometry" />
        </mxCell>
        <mxCell id="nrmPXeRd82tsvhJIg-Bl-15" value="casen_vseq" style="rounded=1;whiteSpace=wrap;html=1;shadow=0;glass=0;sketch=0;strokeColor=#000000;fontSize=20;align=center;verticalAlign=top;dashed=1;dashPattern=1 4;strokeWidth=1;perimeterSpacing=0;" vertex="1" parent="nrmPXeRd82tsvhJIg-Bl-14">
          <mxGeometry width="700" height="130" as="geometry" />
        </mxCell>
        <mxCell id="nrmPXeRd82tsvhJIg-Bl-16" value="" style="group" vertex="1" connectable="0" parent="nrmPXeRd82tsvhJIg-Bl-14">
          <mxGeometry x="232.9994480579818" y="60" width="195.77559933097936" height="26" as="geometry" />
        </mxCell>
        <mxCell id="nrmPXeRd82tsvhJIg-Bl-17" value="read_seq" style="rounded=1;whiteSpace=wrap;html=1;shadow=0;glass=0;sketch=0;strokeColor=#000000;fontSize=20;align=center;fillColor=#FFFFFF;dashed=1;dashPattern=1 4;strokeWidth=1;perimeterSpacing=0;" vertex="1" parent="nrmPXeRd82tsvhJIg-Bl-16">
          <mxGeometry x="76.40023388526022" y="2.698895705521482" width="119.37536544571911" height="23.301104294478513" as="geometry" />
        </mxCell>
        <mxCell id="nrmPXeRd82tsvhJIg-Bl-18" value="&lt;font style=&quot;font-size: 12px&quot;&gt;axis_transfer&lt;/font&gt;" style="rounded=1;whiteSpace=wrap;html=1;shadow=0;glass=0;sketch=0;strokeWidth=1;fillColor=#a0522d;fontSize=12;align=center;fontColor=#ffffff;" vertex="1" parent="nrmPXeRd82tsvhJIg-Bl-16">
          <mxGeometry x="8.595026312091775" width="82.13025142665474" height="13.39877300613496" as="geometry" />
        </mxCell>
        <mxCell id="nrmPXeRd82tsvhJIg-Bl-19" value="" style="group" vertex="1" connectable="0" parent="nrmPXeRd82tsvhJIg-Bl-14">
          <mxGeometry x="448.9973214396332" y="58.5" width="195.77559933097936" height="26" as="geometry" />
        </mxCell>
        <mxCell id="nrmPXeRd82tsvhJIg-Bl-20" value="cmd_seq" style="rounded=1;whiteSpace=wrap;html=1;shadow=0;glass=0;sketch=0;strokeColor=#000000;fontSize=20;align=center;fillColor=#FFFFFF;dashed=1;dashPattern=1 4;strokeWidth=1;perimeterSpacing=0;" vertex="1" parent="nrmPXeRd82tsvhJIg-Bl-19">
          <mxGeometry x="76.40023388526022" y="2.698895705521482" width="119.37536544571911" height="23.301104294478513" as="geometry" />
        </mxCell>
        <mxCell id="nrmPXeRd82tsvhJIg-Bl-21" value="&lt;font style=&quot;font-size: 12px&quot;&gt;axis_transfer&lt;/font&gt;" style="rounded=1;whiteSpace=wrap;html=1;shadow=0;glass=0;sketch=0;strokeWidth=1;fillColor=#a0522d;fontSize=12;align=center;fontColor=#ffffff;" vertex="1" parent="nrmPXeRd82tsvhJIg-Bl-19">
          <mxGeometry x="8.595026312091775" width="82.13025142665474" height="13.39877300613496" as="geometry" />
        </mxCell>
        <mxCell id="nrmPXeRd82tsvhJIg-Bl-22" value="" style="group" vertex="1" connectable="0" parent="nrmPXeRd82tsvhJIg-Bl-14">
          <mxGeometry x="16.000787338165146" y="58.5" width="195.77559933097936" height="26" as="geometry" />
        </mxCell>
        <mxCell id="nrmPXeRd82tsvhJIg-Bl-23" value="write_seq" style="rounded=1;whiteSpace=wrap;html=1;shadow=0;glass=0;sketch=0;strokeColor=#000000;fontSize=20;align=center;fillColor=#FFFFFF;dashed=1;dashPattern=1 4;strokeWidth=1;perimeterSpacing=0;" vertex="1" parent="nrmPXeRd82tsvhJIg-Bl-22">
          <mxGeometry x="76.40023388526022" y="2.698895705521482" width="119.37536544571911" height="23.301104294478513" as="geometry" />
        </mxCell>
        <mxCell id="nrmPXeRd82tsvhJIg-Bl-24" value="&lt;font style=&quot;font-size: 12px&quot;&gt;axis_transfer&lt;/font&gt;" style="rounded=1;whiteSpace=wrap;html=1;shadow=0;glass=0;sketch=0;strokeWidth=1;fillColor=#a0522d;fontSize=12;align=center;fontColor=#ffffff;" vertex="1" parent="nrmPXeRd82tsvhJIg-Bl-22">
          <mxGeometry x="8.595026312091775" width="82.13025142665474" height="13.39877300613496" as="geometry" />
        </mxCell>
        <mxCell id="nrmPXeRd82tsvhJIg-Bl-25" value="" style="endArrow=classic;html=1;exitX=0.5;exitY=1;exitDx=0;exitDy=0;entryX=0.5;entryY=0;entryDx=0;entryDy=0;" edge="1" parent="nrmPXeRd82tsvhJIg-Bl-1" source="nrmPXeRd82tsvhJIg-Bl-78" target="nrmPXeRd82tsvhJIg-Bl-27">
          <mxGeometry width="50" height="50" relative="1" as="geometry">
            <mxPoint x="387.42138364779873" y="340" as="sourcePoint" />
            <mxPoint x="431.44654088050316" y="290" as="targetPoint" />
          </mxGeometry>
        </mxCell>
        <mxCell id="nrmPXeRd82tsvhJIg-Bl-26" value="" style="group" vertex="1" connectable="0" parent="nrmPXeRd82tsvhJIg-Bl-1">
          <mxGeometry x="308.17610062893084" y="355" width="70.44025157232704" height="35" as="geometry" />
        </mxCell>
        <mxCell id="nrmPXeRd82tsvhJIg-Bl-27" value="" style="rounded=0;whiteSpace=wrap;html=1;shadow=0;glass=0;sketch=0;strokeColor=#000000;align=center;" vertex="1" parent="nrmPXeRd82tsvhJIg-Bl-26">
          <mxGeometry x="32.57861635220126" width="4.40251572327044" height="5" as="geometry" />
        </mxCell>
        <mxCell id="nrmPXeRd82tsvhJIg-Bl-28" value="" style="group" vertex="1" connectable="0" parent="nrmPXeRd82tsvhJIg-Bl-26">
          <mxGeometry y="5" width="70.44025157232704" height="30" as="geometry" />
        </mxCell>
        <mxCell id="nrmPXeRd82tsvhJIg-Bl-29" value="driver" style="rounded=0;whiteSpace=wrap;html=1;strokeColor=#000000;fillColor=#FFFFFF;fontSize=20;" vertex="1" parent="nrmPXeRd82tsvhJIg-Bl-28">
          <mxGeometry x="8.80503144654088" width="53.80754716981132" height="30" as="geometry" />
        </mxCell>
        <mxCell id="nrmPXeRd82tsvhJIg-Bl-30" value="&lt;font style=&quot;font-size: 20px&quot;&gt;axis_r_mst&lt;/font&gt;" style="rounded=0;whiteSpace=wrap;html=1;align=center;verticalAlign=top;horizontal=1;labelPosition=center;verticalLabelPosition=middle;fillColor=#b1ddf0;" vertex="1" parent="nrmPXeRd82tsvhJIg-Bl-1">
          <mxGeometry x="79.24528301886792" y="260" width="158.49056603773585" height="160" as="geometry" />
        </mxCell>
        <mxCell id="nrmPXeRd82tsvhJIg-Bl-31" value="" style="endArrow=classic;html=1;entryX=0.5;entryY=1;entryDx=0;entryDy=0;edgeStyle=orthogonalEdgeStyle;" edge="1" parent="nrmPXeRd82tsvhJIg-Bl-1" target="nrmPXeRd82tsvhJIg-Bl-49">
          <mxGeometry width="50" height="50" relative="1" as="geometry">
            <mxPoint x="132.0754716981132" y="410" as="sourcePoint" />
            <mxPoint x="1875.4716981132076" y="-100" as="targetPoint" />
          </mxGeometry>
        </mxCell>
        <mxCell id="nrmPXeRd82tsvhJIg-Bl-32" value="" style="endArrow=classic;html=1;exitX=0.5;exitY=1;exitDx=0;exitDy=0;entryX=0.5;entryY=0;entryDx=0;entryDy=0;" edge="1" parent="nrmPXeRd82tsvhJIg-Bl-1" source="nrmPXeRd82tsvhJIg-Bl-72" target="nrmPXeRd82tsvhJIg-Bl-34">
          <mxGeometry width="50" height="50" relative="1" as="geometry">
            <mxPoint x="1831.446540880503" y="-130" as="sourcePoint" />
            <mxPoint x="1875.4716981132076" y="-180" as="targetPoint" />
          </mxGeometry>
        </mxCell>
        <mxCell id="nrmPXeRd82tsvhJIg-Bl-33" value="" style="group" vertex="1" connectable="0" parent="nrmPXeRd82tsvhJIg-Bl-1">
          <mxGeometry x="96.85534591194968" y="355" width="70.44025157232704" height="35" as="geometry" />
        </mxCell>
        <mxCell id="nrmPXeRd82tsvhJIg-Bl-34" value="" style="rounded=0;whiteSpace=wrap;html=1;shadow=0;glass=0;sketch=0;strokeColor=#000000;align=center;" vertex="1" parent="nrmPXeRd82tsvhJIg-Bl-33">
          <mxGeometry x="32.57861635220126" width="4.40251572327044" height="5" as="geometry" />
        </mxCell>
        <mxCell id="nrmPXeRd82tsvhJIg-Bl-35" value="" style="group" vertex="1" connectable="0" parent="nrmPXeRd82tsvhJIg-Bl-33">
          <mxGeometry y="5" width="70.44025157232704" height="30" as="geometry" />
        </mxCell>
        <mxCell id="nrmPXeRd82tsvhJIg-Bl-36" value="driver" style="rounded=0;whiteSpace=wrap;html=1;strokeColor=#000000;fillColor=#FFFFFF;fontSize=20;" vertex="1" parent="nrmPXeRd82tsvhJIg-Bl-35">
          <mxGeometry x="8.80503144654088" width="53.80754716981132" height="30" as="geometry" />
        </mxCell>
        <mxCell id="nrmPXeRd82tsvhJIg-Bl-37" value="&lt;font style=&quot;font-size: 20px&quot;&gt;axis_w_mst&lt;/font&gt;" style="rounded=0;whiteSpace=wrap;html=1;align=center;verticalAlign=top;horizontal=1;labelPosition=center;verticalLabelPosition=middle;fillColor=#b1ddf0;" vertex="1" parent="nrmPXeRd82tsvhJIg-Bl-1">
          <mxGeometry x="-140.88050314465409" y="260" width="167.29559748427673" height="160" as="geometry" />
        </mxCell>
        <mxCell id="nrmPXeRd82tsvhJIg-Bl-38" value="" style="endArrow=classic;html=1;entryX=0.5;entryY=1;entryDx=0;entryDy=0;edgeStyle=orthogonalEdgeStyle;" edge="1" parent="nrmPXeRd82tsvhJIg-Bl-1" target="nrmPXeRd82tsvhJIg-Bl-51">
          <mxGeometry width="50" height="50" relative="1" as="geometry">
            <mxPoint x="-88.0503144654088" y="410" as="sourcePoint" />
            <mxPoint x="3310.6918238993712" y="-570" as="targetPoint" />
          </mxGeometry>
        </mxCell>
        <mxCell id="nrmPXeRd82tsvhJIg-Bl-39" value="" style="endArrow=classic;html=1;exitX=0.5;exitY=1;exitDx=0;exitDy=0;entryX=0.5;entryY=0;entryDx=0;entryDy=0;" edge="1" parent="nrmPXeRd82tsvhJIg-Bl-1" source="nrmPXeRd82tsvhJIg-Bl-75" target="nrmPXeRd82tsvhJIg-Bl-41">
          <mxGeometry width="50" height="50" relative="1" as="geometry">
            <mxPoint x="3266.666666666667" y="-600" as="sourcePoint" />
            <mxPoint x="3310.6918238993712" y="-650" as="targetPoint" />
          </mxGeometry>
        </mxCell>
        <mxCell id="nrmPXeRd82tsvhJIg-Bl-40" value="" style="group" vertex="1" connectable="0" parent="nrmPXeRd82tsvhJIg-Bl-1">
          <mxGeometry x="-123.27044025157232" y="355" width="70.44025157232704" height="35" as="geometry" />
        </mxCell>
        <mxCell id="nrmPXeRd82tsvhJIg-Bl-41" value="" style="rounded=0;whiteSpace=wrap;html=1;shadow=0;glass=0;sketch=0;strokeColor=#000000;align=center;" vertex="1" parent="nrmPXeRd82tsvhJIg-Bl-40">
          <mxGeometry x="32.57861635220126" width="4.40251572327044" height="5" as="geometry" />
        </mxCell>
        <mxCell id="nrmPXeRd82tsvhJIg-Bl-42" value="" style="group" vertex="1" connectable="0" parent="nrmPXeRd82tsvhJIg-Bl-40">
          <mxGeometry y="5" width="70.44025157232704" height="30" as="geometry" />
        </mxCell>
        <mxCell id="nrmPXeRd82tsvhJIg-Bl-43" value="driver" style="rounded=0;whiteSpace=wrap;html=1;strokeColor=#000000;fillColor=#FFFFFF;fontSize=20;" vertex="1" parent="nrmPXeRd82tsvhJIg-Bl-42">
          <mxGeometry x="8.80503144654088" width="53.80754716981132" height="30" as="geometry" />
        </mxCell>
        <mxCell id="nrmPXeRd82tsvhJIg-Bl-44" value="" style="endArrow=classic;html=1;exitX=0.5;exitY=1;exitDx=0;exitDy=0;" edge="1" parent="nrmPXeRd82tsvhJIg-Bl-1" source="nrmPXeRd82tsvhJIg-Bl-36">
          <mxGeometry width="50" height="50" relative="1" as="geometry">
            <mxPoint x="132.0754716981132" y="410" as="sourcePoint" />
            <mxPoint x="132.0754716981132" y="490" as="targetPoint" />
          </mxGeometry>
        </mxCell>
        <mxCell id="nrmPXeRd82tsvhJIg-Bl-45" value="&lt;font style=&quot;font-size: 14px&quot;&gt;s_axis_r&lt;/font&gt;" style="edgeLabel;html=1;align=center;verticalAlign=middle;resizable=0;points=[];" vertex="1" connectable="0" parent="nrmPXeRd82tsvhJIg-Bl-44">
          <mxGeometry x="0.0752" relative="1" as="geometry">
            <mxPoint as="offset" />
          </mxGeometry>
        </mxCell>
        <mxCell id="nrmPXeRd82tsvhJIg-Bl-46" value="" style="group" vertex="1" connectable="0" parent="nrmPXeRd82tsvhJIg-Bl-1">
          <mxGeometry x="378.6163522012579" y="317.25" width="70.44025157232704" height="30" as="geometry" />
        </mxCell>
        <mxCell id="nrmPXeRd82tsvhJIg-Bl-47" value="monitor" style="rounded=0;whiteSpace=wrap;html=1;strokeColor=#000000;fillColor=#FFFFFF;fontSize=20;" vertex="1" parent="nrmPXeRd82tsvhJIg-Bl-46">
          <mxGeometry width="67.01509433962265" height="30" as="geometry" />
        </mxCell>
        <mxCell id="nrmPXeRd82tsvhJIg-Bl-48" value="" style="group" vertex="1" connectable="0" parent="nrmPXeRd82tsvhJIg-Bl-1">
          <mxGeometry x="158.49056603773585" y="317.25" width="70.44025157232704" height="30" as="geometry" />
        </mxCell>
        <mxCell id="nrmPXeRd82tsvhJIg-Bl-49" value="monitor" style="rounded=0;whiteSpace=wrap;html=1;strokeColor=#000000;fillColor=#FFFFFF;fontSize=20;" vertex="1" parent="nrmPXeRd82tsvhJIg-Bl-48">
          <mxGeometry width="67.01509433962265" height="30" as="geometry" />
        </mxCell>
        <mxCell id="nrmPXeRd82tsvhJIg-Bl-50" value="" style="group" vertex="1" connectable="0" parent="nrmPXeRd82tsvhJIg-Bl-1">
          <mxGeometry x="-52.83018867924528" y="317.25" width="70.44025157232704" height="30" as="geometry" />
        </mxCell>
        <mxCell id="nrmPXeRd82tsvhJIg-Bl-51" value="monitor" style="rounded=0;whiteSpace=wrap;html=1;strokeColor=#000000;fillColor=#FFFFFF;fontSize=20;" vertex="1" parent="nrmPXeRd82tsvhJIg-Bl-50">
          <mxGeometry width="67.01509433962265" height="30" as="geometry" />
        </mxCell>
        <mxCell id="nrmPXeRd82tsvhJIg-Bl-52" value="" style="group" vertex="1" connectable="0" parent="nrmPXeRd82tsvhJIg-Bl-1">
          <mxGeometry x="509.1509433962264" y="317.25" width="64.71698113207547" height="30" as="geometry" />
        </mxCell>
        <mxCell id="nrmPXeRd82tsvhJIg-Bl-53" value="" style="group" vertex="1" connectable="0" parent="nrmPXeRd82tsvhJIg-Bl-52">
          <mxGeometry width="61.63522012578616" height="30" as="geometry" />
        </mxCell>
        <mxCell id="nrmPXeRd82tsvhJIg-Bl-54" value="refmdl" style="rounded=0;whiteSpace=wrap;html=1;shadow=0;glass=0;sketch=0;fillColor=#60a917;fontSize=20;fontColor=#ffffff;" vertex="1" parent="nrmPXeRd82tsvhJIg-Bl-53">
          <mxGeometry x="3.0817610062893084" width="58.55345911949686" height="30" as="geometry" />
        </mxCell>
        <mxCell id="nrmPXeRd82tsvhJIg-Bl-55" value="" style="endArrow=classic;html=1;exitX=0.75;exitY=0;exitDx=0;exitDy=0;entryX=0.124;entryY=0;entryDx=0;entryDy=0;entryPerimeter=0;" edge="1" parent="nrmPXeRd82tsvhJIg-Bl-1" source="nrmPXeRd82tsvhJIg-Bl-49" target="nrmPXeRd82tsvhJIg-Bl-54">
          <mxGeometry width="50" height="50" relative="1" as="geometry">
            <mxPoint x="-1535.5006289308178" y="802.25" as="sourcePoint" />
            <mxPoint x="-1219.496855345912" y="787.25" as="targetPoint" />
            <Array as="points">
              <mxPoint x="208.67924528301887" y="240" />
              <mxPoint x="272.9559748427673" y="240" />
              <mxPoint x="519.496855345912" y="240" />
            </Array>
          </mxGeometry>
        </mxCell>
        <mxCell id="nrmPXeRd82tsvhJIg-Bl-56" value="" style="endArrow=classic;html=1;exitX=0.75;exitY=0;exitDx=0;exitDy=0;entryX=0.35;entryY=-0.008;entryDx=0;entryDy=0;entryPerimeter=0;" edge="1" parent="nrmPXeRd82tsvhJIg-Bl-1" source="nrmPXeRd82tsvhJIg-Bl-51" target="nrmPXeRd82tsvhJIg-Bl-54">
          <mxGeometry width="50" height="50" relative="1" as="geometry">
            <mxPoint x="123.27044025157232" y="250" as="sourcePoint" />
            <mxPoint x="167.29559748427673" y="200" as="targetPoint" />
            <Array as="points">
              <mxPoint x="-2.6415094339622645" y="221" />
              <mxPoint x="44.0251572327044" y="221" />
              <mxPoint x="532.7044025157232" y="221" />
            </Array>
          </mxGeometry>
        </mxCell>
        <mxCell id="nrmPXeRd82tsvhJIg-Bl-57" value="" style="endArrow=classic;html=1;entryX=1;entryY=0.5;entryDx=0;entryDy=0;exitX=0;exitY=0.5;exitDx=0;exitDy=0;" edge="1" parent="nrmPXeRd82tsvhJIg-Bl-1" source="nrmPXeRd82tsvhJIg-Bl-60" target="nrmPXeRd82tsvhJIg-Bl-54">
          <mxGeometry width="50" height="50" relative="1" as="geometry">
            <mxPoint x="607.5471698113208" y="280" as="sourcePoint" />
            <mxPoint x="651.5723270440252" y="230" as="targetPoint" />
          </mxGeometry>
        </mxCell>
        <mxCell id="nrmPXeRd82tsvhJIg-Bl-58" value="driver" style="rounded=0;whiteSpace=wrap;html=1;shadow=0;glass=0;sketch=0;strokeColor=#000000;fontSize=20;" vertex="1" parent="nrmPXeRd82tsvhJIg-Bl-1">
          <mxGeometry x="704.4025157232704" y="317.25" width="52.83018867924528" height="30" as="geometry" />
        </mxCell>
        <mxCell id="nrmPXeRd82tsvhJIg-Bl-59" value="" style="group" vertex="1" connectable="0" parent="nrmPXeRd82tsvhJIg-Bl-1">
          <mxGeometry x="621.7320754716982" y="317.25" width="70.44025157232704" height="30" as="geometry" />
        </mxCell>
        <mxCell id="nrmPXeRd82tsvhJIg-Bl-60" value="monitor" style="rounded=0;whiteSpace=wrap;html=1;strokeColor=#000000;fillColor=#FFFFFF;fontSize=20;" vertex="1" parent="nrmPXeRd82tsvhJIg-Bl-59">
          <mxGeometry x="3.4251572327043904" width="67.01509433962265" height="30" as="geometry" />
        </mxCell>
        <mxCell id="nrmPXeRd82tsvhJIg-Bl-61" value="" style="group" vertex="1" connectable="0" parent="nrmPXeRd82tsvhJIg-Bl-1">
          <mxGeometry x="817.1069182389938" y="317.25" width="70.44025157232704" height="30" as="geometry" />
        </mxCell>
        <mxCell id="nrmPXeRd82tsvhJIg-Bl-62" value="monitor" style="rounded=0;whiteSpace=wrap;html=1;strokeColor=#000000;fillColor=#FFFFFF;fontSize=20;" vertex="1" parent="nrmPXeRd82tsvhJIg-Bl-61">
          <mxGeometry x="3.4251572327043904" width="67.01509433962265" height="30" as="geometry" />
        </mxCell>
        <mxCell id="nrmPXeRd82tsvhJIg-Bl-63" value="driver" style="rounded=0;whiteSpace=wrap;html=1;shadow=0;glass=0;sketch=0;strokeColor=#000000;fontSize=20;" vertex="1" parent="nrmPXeRd82tsvhJIg-Bl-1">
          <mxGeometry x="898.1132075471698" y="317.25" width="52.83018867924528" height="30" as="geometry" />
        </mxCell>
        <mxCell id="nrmPXeRd82tsvhJIg-Bl-64" value="&lt;font style=&quot;font-size: 20px&quot;&gt;axis_ack&lt;/font&gt;" style="rounded=0;whiteSpace=wrap;html=1;fillColor=#b1ddf0;align=center;verticalAlign=top;horizontal=1;labelPosition=center;verticalLabelPosition=middle;" vertex="1" parent="nrmPXeRd82tsvhJIg-Bl-1">
          <mxGeometry x="986.1635220125786" y="260" width="149.68553459119497" height="130" as="geometry" />
        </mxCell>
        <mxCell id="nrmPXeRd82tsvhJIg-Bl-65" value="" style="group" vertex="1" connectable="0" parent="nrmPXeRd82tsvhJIg-Bl-1">
          <mxGeometry x="993.2515723270442" y="317.25" width="70.44025157232704" height="30" as="geometry" />
        </mxCell>
        <mxCell id="nrmPXeRd82tsvhJIg-Bl-66" value="monitor" style="rounded=0;whiteSpace=wrap;html=1;strokeColor=#000000;fillColor=#FFFFFF;fontSize=20;" vertex="1" parent="nrmPXeRd82tsvhJIg-Bl-65">
          <mxGeometry x="3.4251572327043904" width="67.01509433962265" height="30" as="geometry" />
        </mxCell>
        <mxCell id="nrmPXeRd82tsvhJIg-Bl-67" value="driver" style="rounded=0;whiteSpace=wrap;html=1;shadow=0;glass=0;sketch=0;strokeColor=#000000;fontSize=20;" vertex="1" parent="nrmPXeRd82tsvhJIg-Bl-1">
          <mxGeometry x="1075.9220125786164" y="317.25" width="52.83018867924528" height="30" as="geometry" />
        </mxCell>
        <mxCell id="nrmPXeRd82tsvhJIg-Bl-68" value="" style="endArrow=classic;html=1;exitX=0.25;exitY=0;exitDx=0;exitDy=0;entryX=0.868;entryY=-0.01;entryDx=0;entryDy=0;entryPerimeter=0;" edge="1" parent="nrmPXeRd82tsvhJIg-Bl-1" source="nrmPXeRd82tsvhJIg-Bl-62" target="nrmPXeRd82tsvhJIg-Bl-54">
          <mxGeometry width="50" height="50" relative="1" as="geometry">
            <mxPoint x="563.5220125786163" y="190" as="sourcePoint" />
            <mxPoint x="607.5471698113208" y="140" as="targetPoint" />
            <Array as="points">
              <mxPoint x="837" y="240" />
              <mxPoint x="562.6415094339623" y="240" />
            </Array>
          </mxGeometry>
        </mxCell>
        <mxCell id="nrmPXeRd82tsvhJIg-Bl-69" value="" style="endArrow=classic;html=1;exitX=0.5;exitY=0;exitDx=0;exitDy=0;entryX=0.667;entryY=-0.012;entryDx=0;entryDy=0;entryPerimeter=0;" edge="1" parent="nrmPXeRd82tsvhJIg-Bl-1" source="nrmPXeRd82tsvhJIg-Bl-66" target="nrmPXeRd82tsvhJIg-Bl-54">
          <mxGeometry width="50" height="50" relative="1" as="geometry">
            <mxPoint x="845.2830188679245" y="190" as="sourcePoint" />
            <mxPoint x="889.308176100629" y="140" as="targetPoint" />
            <Array as="points">
              <mxPoint x="1030.188679245283" y="220" />
              <mxPoint x="551.1949685534591" y="220" />
            </Array>
          </mxGeometry>
        </mxCell>
        <mxCell id="nrmPXeRd82tsvhJIg-Bl-70" value="" style="group" vertex="1" connectable="0" parent="nrmPXeRd82tsvhJIg-Bl-1">
          <mxGeometry x="114.46540880503144" y="300" width="35.22012578616352" height="34" as="geometry" />
        </mxCell>
        <mxCell id="nrmPXeRd82tsvhJIg-Bl-71" value="sqr" style="rounded=0;whiteSpace=wrap;html=1;strokeColor=#36393d;fillColor=#ffff88;fontSize=20;" vertex="1" parent="nrmPXeRd82tsvhJIg-Bl-70">
          <mxGeometry width="35.22012578616352" height="30" as="geometry" />
        </mxCell>
        <mxCell id="nrmPXeRd82tsvhJIg-Bl-72" value="" style="ellipse;whiteSpace=wrap;html=1;aspect=fixed;rounded=0;shadow=0;glass=0;sketch=0;strokeColor=#000000;align=center;" vertex="1" parent="nrmPXeRd82tsvhJIg-Bl-70">
          <mxGeometry x="15.849056603773585" y="30" width="3.5220125786163523" height="3.5220125786163523" as="geometry" />
        </mxCell>
        <mxCell id="nrmPXeRd82tsvhJIg-Bl-73" value="" style="group" vertex="1" connectable="0" parent="nrmPXeRd82tsvhJIg-Bl-1">
          <mxGeometry x="-105.66037735849056" y="300" width="35.22012578616352" height="34" as="geometry" />
        </mxCell>
        <mxCell id="nrmPXeRd82tsvhJIg-Bl-74" value="sqr" style="rounded=0;whiteSpace=wrap;html=1;strokeColor=#36393d;fillColor=#ffff88;fontSize=20;" vertex="1" parent="nrmPXeRd82tsvhJIg-Bl-73">
          <mxGeometry width="35.22012578616352" height="30" as="geometry" />
        </mxCell>
        <mxCell id="nrmPXeRd82tsvhJIg-Bl-75" value="" style="ellipse;whiteSpace=wrap;html=1;aspect=fixed;rounded=0;shadow=0;glass=0;sketch=0;strokeColor=#000000;align=center;" vertex="1" parent="nrmPXeRd82tsvhJIg-Bl-73">
          <mxGeometry x="15.849056603773585" y="30" width="3.5220125786163523" height="3.5220125786163523" as="geometry" />
        </mxCell>
        <mxCell id="nrmPXeRd82tsvhJIg-Bl-76" value="" style="group" vertex="1" connectable="0" parent="nrmPXeRd82tsvhJIg-Bl-1">
          <mxGeometry x="325.7861635220126" y="300" width="35.22012578616352" height="34" as="geometry" />
        </mxCell>
        <mxCell id="nrmPXeRd82tsvhJIg-Bl-77" value="sqr" style="rounded=0;whiteSpace=wrap;html=1;strokeColor=#36393d;fillColor=#ffff88;fontSize=20;" vertex="1" parent="nrmPXeRd82tsvhJIg-Bl-76">
          <mxGeometry width="35.22012578616352" height="30" as="geometry" />
        </mxCell>
        <mxCell id="nrmPXeRd82tsvhJIg-Bl-78" value="" style="ellipse;whiteSpace=wrap;html=1;aspect=fixed;rounded=0;shadow=0;glass=0;sketch=0;strokeColor=#000000;align=center;" vertex="1" parent="nrmPXeRd82tsvhJIg-Bl-76">
          <mxGeometry x="15.849056603773585" y="30" width="3.5220125786163523" height="3.5220125786163523" as="geometry" />
        </mxCell>
        <mxCell id="nrmPXeRd82tsvhJIg-Bl-79" value="" style="endArrow=classic;html=1;exitX=0.5;exitY=0;exitDx=0;exitDy=0;entryX=0.5;entryY=0;entryDx=0;entryDy=0;fillColor=#f8cecc;strokeColor=#b85450;strokeWidth=2;dashed=1;" edge="1" parent="nrmPXeRd82tsvhJIg-Bl-1" source="nrmPXeRd82tsvhJIg-Bl-60" target="nrmPXeRd82tsvhJIg-Bl-17">
          <mxGeometry width="50" height="50" relative="1" as="geometry">
            <mxPoint x="879.4178048780491" y="-160.00000000000023" as="sourcePoint" />
            <mxPoint x="850" y="55.5" as="targetPoint" />
            <Array as="points">
              <mxPoint x="659" y="-328" />
              <mxPoint x="130" y="-328" />
            </Array>
          </mxGeometry>
        </mxCell>
        <mxCell id="nrmPXeRd82tsvhJIg-Bl-80" value="&lt;font style=&quot;font-size: 16px&quot;&gt;uvm_event&lt;/font&gt;" style="edgeLabel;html=1;align=center;verticalAlign=middle;resizable=0;points=[];spacing=8;" vertex="1" connectable="0" parent="nrmPXeRd82tsvhJIg-Bl-79">
          <mxGeometry x="-0.3201" relative="1" as="geometry">
            <mxPoint as="offset" />
          </mxGeometry>
        </mxCell>
        <mxCell id="nrmPXeRd82tsvhJIg-Bl-81" value="" style="endArrow=classic;html=1;dashed=1;exitX=0.5;exitY=0;exitDx=0;exitDy=0;entryX=0.5;entryY=0;entryDx=0;entryDy=0;fillColor=#f8cecc;rounded=1;shadow=0;strokeColor=#b85450;strokeWidth=2;" edge="1" parent="nrmPXeRd82tsvhJIg-Bl-1" source="nrmPXeRd82tsvhJIg-Bl-62" target="nrmPXeRd82tsvhJIg-Bl-23">
          <mxGeometry width="50" height="50" relative="1" as="geometry">
            <mxPoint x="859.6647798742133" y="307.25" as="sourcePoint" />
            <mxPoint x="330.4178048780491" y="-268.8011042944786" as="targetPoint" />
            <Array as="points">
              <mxPoint x="860" y="-360" />
              <mxPoint x="-87" y="-360" />
            </Array>
          </mxGeometry>
        </mxCell>
        <mxCell id="nrmPXeRd82tsvhJIg-Bl-82" value="&lt;font style=&quot;font-size: 15px&quot;&gt;uvm_event&lt;/font&gt;" style="edgeLabel;html=1;align=center;verticalAlign=middle;resizable=0;points=[];" vertex="1" connectable="0" parent="nrmPXeRd82tsvhJIg-Bl-81">
          <mxGeometry x="-0.3573" y="4" relative="1" as="geometry">
            <mxPoint x="-1.47" y="-9.73" as="offset" />
          </mxGeometry>
        </mxCell>
        <mxCell id="nrmPXeRd82tsvhJIg-Bl-83" value="" style="group" vertex="1" connectable="0" parent="1">
          <mxGeometry x="-2210" y="400" width="650" height="100" as="geometry" />
        </mxCell>
        <mxCell id="nrmPXeRd82tsvhJIg-Bl-84" value="&lt;font style=&quot;font-size: 20px&quot;&gt;v_sqr&lt;/font&gt;" style="rounded=0;whiteSpace=wrap;html=1;align=center;verticalAlign=top;horizontal=1;labelPosition=center;verticalLabelPosition=middle;fillColor=#b1ddf0;" vertex="1" parent="nrmPXeRd82tsvhJIg-Bl-83">
          <mxGeometry width="650" height="100" as="geometry" />
        </mxCell>
        <mxCell id="nrmPXeRd82tsvhJIg-Bl-85" value="axis_w_mst_sqr" style="rounded=0;whiteSpace=wrap;html=1;fontSize=20;" vertex="1" parent="nrmPXeRd82tsvhJIg-Bl-83">
          <mxGeometry x="32.14285714285715" y="50" width="182.14285714285714" height="25" as="geometry" />
        </mxCell>
        <mxCell id="nrmPXeRd82tsvhJIg-Bl-86" value="axis_r_mst_sqr" style="rounded=0;whiteSpace=wrap;html=1;fontSize=20;" vertex="1" parent="nrmPXeRd82tsvhJIg-Bl-83">
          <mxGeometry x="254.70428571428573" y="50" width="171.42857142857142" height="25" as="geometry" />
        </mxCell>
        <mxCell id="nrmPXeRd82tsvhJIg-Bl-87" value="axis_cmd_sqr" style="rounded=0;whiteSpace=wrap;html=1;fontSize=20;" vertex="1" parent="nrmPXeRd82tsvhJIg-Bl-83">
          <mxGeometry x="478.39142857142866" y="50" width="150" height="25" as="geometry" />
        </mxCell>
        <mxCell id="nrmPXeRd82tsvhJIg-Bl-88" value="" style="endArrow=classic;html=1;entryX=0.5;entryY=0;entryDx=0;entryDy=0;exitX=0.5;exitY=1;exitDx=0;exitDy=0;exitPerimeter=0;dashed=1;strokeWidth=2;" edge="1" parent="1" source="nrmPXeRd82tsvhJIg-Bl-85" target="nrmPXeRd82tsvhJIg-Bl-74">
          <mxGeometry width="50" height="50" relative="1" as="geometry">
            <mxPoint x="-2007" y="421" as="sourcePoint" />
            <mxPoint x="-2310" y="360" as="targetPoint" />
          </mxGeometry>
        </mxCell>
        <mxCell id="nrmPXeRd82tsvhJIg-Bl-89" value="" style="endArrow=classic;html=1;entryX=0.5;entryY=0;entryDx=0;entryDy=0;exitX=0.5;exitY=1;exitDx=0;exitDy=0;dashed=1;strokeWidth=2;" edge="1" parent="1" source="nrmPXeRd82tsvhJIg-Bl-86" target="nrmPXeRd82tsvhJIg-Bl-71">
          <mxGeometry width="50" height="50" relative="1" as="geometry">
            <mxPoint x="-1995" y="390" as="sourcePoint" />
            <mxPoint x="-2078.050314465409" y="780" as="targetPoint" />
          </mxGeometry>
        </mxCell>
        <mxCell id="nrmPXeRd82tsvhJIg-Bl-90" value="" style="endArrow=classic;html=1;entryX=0.5;entryY=0;entryDx=0;entryDy=0;exitX=0.5;exitY=1;exitDx=0;exitDy=0;dashed=1;strokeWidth=2;" edge="1" parent="1" source="nrmPXeRd82tsvhJIg-Bl-87" target="nrmPXeRd82tsvhJIg-Bl-77">
          <mxGeometry width="50" height="50" relative="1" as="geometry">
            <mxPoint x="-1636.95" y="390" as="sourcePoint" />
            <mxPoint x="-1720.000314465409" y="780" as="targetPoint" />
          </mxGeometry>
        </mxCell>
        <mxCell id="nrmPXeRd82tsvhJIg-Bl-91" value="" style="endArrow=classic;html=1;dashed=1;exitX=0.505;exitY=1.021;exitDx=0;exitDy=0;exitPerimeter=0;entryX=0.5;entryY=0;entryDx=0;entryDy=0;strokeWidth=2;" edge="1" parent="1" source="nrmPXeRd82tsvhJIg-Bl-23" target="nrmPXeRd82tsvhJIg-Bl-85">
          <mxGeometry width="50" height="50" relative="1" as="geometry">
            <mxPoint x="-2020" y="290" as="sourcePoint" />
            <mxPoint x="-2051" y="382" as="targetPoint" />
          </mxGeometry>
        </mxCell>
        <mxCell id="nrmPXeRd82tsvhJIg-Bl-92" value="" style="endArrow=classic;html=1;dashed=1;exitX=0.5;exitY=1;exitDx=0;exitDy=0;entryX=0.5;entryY=0;entryDx=0;entryDy=0;strokeWidth=2;" edge="1" parent="1" source="nrmPXeRd82tsvhJIg-Bl-20" target="nrmPXeRd82tsvhJIg-Bl-87">
          <mxGeometry width="50" height="50" relative="1" as="geometry">
            <mxPoint x="-2050.014573170732" y="244.989323190184" as="sourcePoint" />
            <mxPoint x="-2045" y="460" as="targetPoint" />
          </mxGeometry>
        </mxCell>
        <mxCell id="nrmPXeRd82tsvhJIg-Bl-93" value="" style="endArrow=classic;html=1;dashed=1;exitX=0.5;exitY=1;exitDx=0;exitDy=0;entryX=0.5;entryY=0;entryDx=0;entryDy=0;strokeWidth=2;" edge="1" parent="1" source="nrmPXeRd82tsvhJIg-Bl-17" target="nrmPXeRd82tsvhJIg-Bl-86">
          <mxGeometry width="50" height="50" relative="1" as="geometry">
            <mxPoint x="-2040.014573170732" y="254.989323190184" as="sourcePoint" />
            <mxPoint x="-2035" y="470" as="targetPoint" />
          </mxGeometry>
        </mxCell>
        <mxCell id="nrmPXeRd82tsvhJIg-Bl-94" value="" style="endArrow=none;html=1;shadow=0;strokeColor=#000000;strokeWidth=1;entryX=0;entryY=0.5;entryDx=0;entryDy=0;" edge="1" parent="1" target="nrmPXeRd82tsvhJIg-Bl-8">
          <mxGeometry width="50" height="50" relative="1" as="geometry">
            <mxPoint x="-2240" y="960" as="sourcePoint" />
            <mxPoint x="-1490" y="1050" as="targetPoint" />
          </mxGeometry>
        </mxCell>
        <mxCell id="nrmPXeRd82tsvhJIg-Bl-95" value="" style="endArrow=classic;html=1;shadow=0;strokeColor=#000000;strokeWidth=1;exitX=0.5;exitY=1;exitDx=0;exitDy=0;" edge="1" parent="1" source="nrmPXeRd82tsvhJIg-Bl-43">
          <mxGeometry width="50" height="50" relative="1" as="geometry">
            <mxPoint x="-2010" y="1080" as="sourcePoint" />
            <mxPoint x="-2088" y="960" as="targetPoint" />
          </mxGeometry>
        </mxCell>
        <mxCell id="nrmPXeRd82tsvhJIg-Bl-96" value="&lt;font style=&quot;font-size: 14px&quot;&gt;a_axis_w&lt;/font&gt;" style="edgeLabel;html=1;align=center;verticalAlign=middle;resizable=0;points=[];" vertex="1" connectable="0" parent="nrmPXeRd82tsvhJIg-Bl-95">
          <mxGeometry x="0.123" y="-2" relative="1" as="geometry">
            <mxPoint as="offset" />
          </mxGeometry>
        </mxCell>
        <mxCell id="nrmPXeRd82tsvhJIg-Bl-97" value="" style="endArrow=classic;html=1;shadow=0;strokeColor=#000000;strokeWidth=1;entryX=0.5;entryY=1;entryDx=0;entryDy=0;" edge="1" parent="1" target="nrmPXeRd82tsvhJIg-Bl-60">
          <mxGeometry width="50" height="50" relative="1" as="geometry">
            <mxPoint x="-1341" y="960" as="sourcePoint" />
            <mxPoint x="-970" y="1030" as="targetPoint" />
          </mxGeometry>
        </mxCell>
        <mxCell id="nrmPXeRd82tsvhJIg-Bl-98" value="&lt;font style=&quot;font-size: 14px&quot;&gt;m_axis_r&lt;/font&gt;" style="edgeLabel;html=1;align=center;verticalAlign=middle;resizable=0;points=[];" vertex="1" connectable="0" parent="nrmPXeRd82tsvhJIg-Bl-97">
          <mxGeometry x="-0.2245" y="-1" relative="1" as="geometry">
            <mxPoint x="-1.21" as="offset" />
          </mxGeometry>
        </mxCell>
        <mxCell id="nrmPXeRd82tsvhJIg-Bl-99" value="" style="endArrow=classic;html=1;shadow=0;strokeColor=#000000;strokeWidth=1;entryX=0.5;entryY=1;entryDx=0;entryDy=0;" edge="1" parent="1" target="nrmPXeRd82tsvhJIg-Bl-62">
          <mxGeometry width="50" height="50" relative="1" as="geometry">
            <mxPoint x="-1146" y="960" as="sourcePoint" />
            <mxPoint x="-1298.8050314465409" y="870" as="targetPoint" />
          </mxGeometry>
        </mxCell>
        <mxCell id="nrmPXeRd82tsvhJIg-Bl-100" value="&lt;font style=&quot;font-size: 14px&quot;&gt;m_axis_w&lt;/font&gt;" style="edgeLabel;html=1;align=center;verticalAlign=middle;resizable=0;points=[];" vertex="1" connectable="0" parent="nrmPXeRd82tsvhJIg-Bl-99">
          <mxGeometry x="-0.3075" relative="1" as="geometry">
            <mxPoint as="offset" />
          </mxGeometry>
        </mxCell>
        <mxCell id="nrmPXeRd82tsvhJIg-Bl-101" value="" style="endArrow=classic;html=1;shadow=0;strokeColor=#000000;strokeWidth=1;entryX=0.5;entryY=1;entryDx=0;entryDy=0;" edge="1" parent="1" target="nrmPXeRd82tsvhJIg-Bl-66">
          <mxGeometry width="50" height="50" relative="1" as="geometry">
            <mxPoint x="-969.9999999999991" y="960" as="sourcePoint" />
            <mxPoint x="-1288.8050314465409" y="880" as="targetPoint" />
          </mxGeometry>
        </mxCell>
        <mxCell id="nrmPXeRd82tsvhJIg-Bl-102" value="&lt;font style=&quot;font-size: 14px&quot;&gt;s_axis_ack&lt;/font&gt;" style="edgeLabel;html=1;align=center;verticalAlign=middle;resizable=0;points=[];" vertex="1" connectable="0" parent="nrmPXeRd82tsvhJIg-Bl-101">
          <mxGeometry x="-0.3163" y="-2" relative="1" as="geometry">
            <mxPoint x="-1.88" as="offset" />
          </mxGeometry>
        </mxCell>
        <mxCell id="nrmPXeRd82tsvhJIg-Bl-103" value="" style="endArrow=classic;html=1;shadow=0;strokeColor=#000000;strokeWidth=1;exitX=0.5;exitY=1;exitDx=0;exitDy=0;" edge="1" parent="1" source="nrmPXeRd82tsvhJIg-Bl-63">
          <mxGeometry width="50" height="50" relative="1" as="geometry">
            <mxPoint x="-1331" y="970" as="sourcePoint" />
            <mxPoint x="-1074.999999999999" y="960" as="targetPoint" />
          </mxGeometry>
        </mxCell>
        <mxCell id="nrmPXeRd82tsvhJIg-Bl-104" value="" style="endArrow=classic;html=1;shadow=0;strokeColor=#000000;strokeWidth=1;exitX=0.5;exitY=1;exitDx=0;exitDy=0;" edge="1" parent="1" source="nrmPXeRd82tsvhJIg-Bl-67">
          <mxGeometry width="50" height="50" relative="1" as="geometry">
            <mxPoint x="-1321" y="980" as="sourcePoint" />
            <mxPoint x="-898" y="960" as="targetPoint" />
          </mxGeometry>
        </mxCell>
        <mxCell id="nrmPXeRd82tsvhJIg-Bl-105" value="" style="endArrow=classic;html=1;shadow=0;strokeColor=#000000;strokeWidth=1;exitX=0.5;exitY=1;exitDx=0;exitDy=0;" edge="1" parent="1" source="nrmPXeRd82tsvhJIg-Bl-58">
          <mxGeometry width="50" height="50" relative="1" as="geometry">
            <mxPoint x="-1331" y="970" as="sourcePoint" />
            <mxPoint x="-1270" y="960" as="targetPoint" />
          </mxGeometry>
        </mxCell>
        <mxCell id="nrmPXeRd82tsvhJIg-Bl-106" value="&lt;font style=&quot;font-size: 20px&quot;&gt;Top&lt;/font&gt;" style="rounded=0;whiteSpace=wrap;html=1;strokeColor=#23445d;fillColor=#bac8d3;shadow=0;glass=0;sketch=0;verticalAlign=top;" vertex="1" parent="1">
          <mxGeometry x="50" y="900" width="880" height="550" as="geometry" />
        </mxCell>
        <mxCell id="nrmPXeRd82tsvhJIg-Bl-107" value="&lt;font style=&quot;font-size: 20px&quot;&gt;case_n&lt;/font&gt;" style="rounded=0;whiteSpace=wrap;html=1;strokeColor=#6c8ebf;fillColor=#dae8fc;shadow=0;glass=0;sketch=0;verticalAlign=top;" vertex="1" parent="1">
          <mxGeometry x="140" y="940" width="750" height="400" as="geometry" />
        </mxCell>
        <mxCell id="nrmPXeRd82tsvhJIg-Bl-108" value="&lt;font style=&quot;font-size: 20px&quot;&gt;env&lt;/font&gt;" style="rounded=0;whiteSpace=wrap;html=1;strokeColor=#9673a6;fillColor=#e1d5e7;shadow=0;glass=0;sketch=0;verticalAlign=top;" vertex="1" parent="1">
          <mxGeometry x="229.47" y="982.75" width="630" height="337.25" as="geometry" />
        </mxCell>
        <mxCell id="nrmPXeRd82tsvhJIg-Bl-109" value="&lt;font style=&quot;font-size: 20px&quot;&gt;get_ack&lt;/font&gt;" style="rounded=0;whiteSpace=wrap;html=1;fillColor=#b1ddf0;align=center;verticalAlign=top;horizontal=1;labelPosition=center;verticalLabelPosition=middle;" vertex="1" parent="1">
          <mxGeometry x="619.3122012578617" y="1000" width="149.68553459119497" height="130" as="geometry" />
        </mxCell>
        <mxCell id="nrmPXeRd82tsvhJIg-Bl-110" value="&lt;font style=&quot;font-size: 20px&quot;&gt;send_req&lt;/font&gt;" style="rounded=0;whiteSpace=wrap;html=1;align=center;verticalAlign=top;horizontal=1;labelPosition=center;verticalLabelPosition=middle;fillColor=#b1ddf0;" vertex="1" parent="1">
          <mxGeometry x="260" y="1000" width="200.82" height="160" as="geometry" />
        </mxCell>
        <mxCell id="nrmPXeRd82tsvhJIg-Bl-111" value="&lt;font style=&quot;font-size: 20px&quot;&gt;DUT&lt;/font&gt;" style="rounded=0;whiteSpace=wrap;html=1;shadow=0;glass=0;sketch=0;verticalAlign=middle;align=center;dashed=1;fontColor=#ffffff;fillColor=#e0a4a2;dashPattern=1 4;" vertex="1" parent="1">
          <mxGeometry x="494.6581132075471" y="1390" width="110.062893081761" height="40" as="geometry" />
        </mxCell>
        <mxCell id="nrmPXeRd82tsvhJIg-Bl-112" value="" style="endArrow=none;html=1;exitX=1;exitY=0.5;exitDx=0;exitDy=0;" edge="1" parent="1" source="nrmPXeRd82tsvhJIg-Bl-111">
          <mxGeometry width="50" height="50" relative="1" as="geometry">
            <mxPoint x="2615.7272955974845" y="939.76" as="sourcePoint" />
            <mxPoint x="809.9999999999991" y="1410" as="targetPoint" />
          </mxGeometry>
        </mxCell>
        <mxCell id="nrmPXeRd82tsvhJIg-Bl-113" value="" style="endArrow=blockThin;html=1;exitX=0.5;exitY=1;exitDx=0;exitDy=0;endFill=1;" edge="1" parent="1" source="nrmPXeRd82tsvhJIg-Bl-160">
          <mxGeometry width="50" height="50" relative="1" as="geometry">
            <mxPoint x="2372.771320754717" y="710" as="sourcePoint" />
            <mxPoint x="319.9999999999991" y="1410" as="targetPoint" />
          </mxGeometry>
        </mxCell>
        <mxCell id="nrmPXeRd82tsvhJIg-Bl-114" value="&lt;font style=&quot;font-size: 14px&quot;&gt;req_if&lt;br&gt;&lt;/font&gt;" style="edgeLabel;html=1;align=center;verticalAlign=middle;resizable=0;points=[];fontSize=12;" vertex="1" connectable="0" parent="nrmPXeRd82tsvhJIg-Bl-113">
          <mxGeometry x="0.2757" relative="1" as="geometry">
            <mxPoint x="-0.28" y="-9.39" as="offset" />
          </mxGeometry>
        </mxCell>
        <mxCell id="nrmPXeRd82tsvhJIg-Bl-115" value="" style="endArrow=classic;html=1;entryX=0.5;entryY=1;entryDx=0;entryDy=0;edgeStyle=orthogonalEdgeStyle;" edge="1" parent="1" target="nrmPXeRd82tsvhJIg-Bl-129">
          <mxGeometry width="50" height="50" relative="1" as="geometry">
            <mxPoint x="346.3562264150951" y="1150" as="sourcePoint" />
            <mxPoint x="2434.406540880503" y="640" as="targetPoint" />
          </mxGeometry>
        </mxCell>
        <mxCell id="nrmPXeRd82tsvhJIg-Bl-116" value="" style="endArrow=classic;html=1;exitX=1;exitY=0.5;exitDx=0;exitDy=0;entryX=0;entryY=0.5;entryDx=0;entryDy=0;" edge="1" parent="1" source="nrmPXeRd82tsvhJIg-Bl-129" target="nrmPXeRd82tsvhJIg-Bl-132">
          <mxGeometry width="50" height="50" relative="1" as="geometry">
            <mxPoint x="2452.016603773585" y="602.25" as="sourcePoint" />
            <mxPoint x="2504.8467924529946" y="602.25" as="targetPoint" />
          </mxGeometry>
        </mxCell>
        <mxCell id="nrmPXeRd82tsvhJIg-Bl-117" value="" style="group" vertex="1" connectable="0" parent="1">
          <mxGeometry x="-236.03999999999996" y="457" width="700" height="130" as="geometry" />
        </mxCell>
        <mxCell id="nrmPXeRd82tsvhJIg-Bl-118" value="casen_vseq" style="rounded=1;whiteSpace=wrap;html=1;shadow=0;glass=0;sketch=0;strokeColor=#000000;fontSize=20;align=center;verticalAlign=top;dashed=1;dashPattern=1 4;strokeWidth=1;perimeterSpacing=0;" vertex="1" parent="nrmPXeRd82tsvhJIg-Bl-117">
          <mxGeometry width="700" height="130" as="geometry" />
        </mxCell>
        <mxCell id="nrmPXeRd82tsvhJIg-Bl-119" value="" style="group" vertex="1" connectable="0" parent="nrmPXeRd82tsvhJIg-Bl-117">
          <mxGeometry x="232.9994480579818" y="60" width="195.77559933097936" height="26" as="geometry" />
        </mxCell>
        <mxCell id="nrmPXeRd82tsvhJIg-Bl-120" value="read_seq" style="rounded=1;whiteSpace=wrap;html=1;shadow=0;glass=0;sketch=0;strokeColor=#000000;fontSize=20;align=center;fillColor=#FFFFFF;dashed=1;dashPattern=1 4;strokeWidth=1;perimeterSpacing=0;" vertex="1" parent="nrmPXeRd82tsvhJIg-Bl-119">
          <mxGeometry x="76.40023388526022" y="2.698895705521482" width="119.37536544571911" height="23.301104294478513" as="geometry" />
        </mxCell>
        <mxCell id="nrmPXeRd82tsvhJIg-Bl-121" value="&lt;font style=&quot;font-size: 12px&quot;&gt;axis_transfer&lt;/font&gt;" style="rounded=1;whiteSpace=wrap;html=1;shadow=0;glass=0;sketch=0;strokeWidth=1;fillColor=#a0522d;fontSize=12;align=center;fontColor=#ffffff;" vertex="1" parent="nrmPXeRd82tsvhJIg-Bl-119">
          <mxGeometry x="8.595026312091775" width="82.13025142665474" height="13.39877300613496" as="geometry" />
        </mxCell>
        <mxCell id="nrmPXeRd82tsvhJIg-Bl-122" value="" style="group" vertex="1" connectable="0" parent="nrmPXeRd82tsvhJIg-Bl-117">
          <mxGeometry x="448.9973214396332" y="58.5" width="195.77559933097936" height="26" as="geometry" />
        </mxCell>
        <mxCell id="nrmPXeRd82tsvhJIg-Bl-123" value="cmd_seq" style="rounded=1;whiteSpace=wrap;html=1;shadow=0;glass=0;sketch=0;strokeColor=#000000;fontSize=20;align=center;fillColor=#FFFFFF;dashed=1;dashPattern=1 4;strokeWidth=1;perimeterSpacing=0;" vertex="1" parent="nrmPXeRd82tsvhJIg-Bl-122">
          <mxGeometry x="76.40023388526022" y="2.698895705521482" width="119.37536544571911" height="23.301104294478513" as="geometry" />
        </mxCell>
        <mxCell id="nrmPXeRd82tsvhJIg-Bl-124" value="&lt;font style=&quot;font-size: 12px&quot;&gt;axis_transfer&lt;/font&gt;" style="rounded=1;whiteSpace=wrap;html=1;shadow=0;glass=0;sketch=0;strokeWidth=1;fillColor=#a0522d;fontSize=12;align=center;fontColor=#ffffff;" vertex="1" parent="nrmPXeRd82tsvhJIg-Bl-122">
          <mxGeometry x="8.595026312091775" width="82.13025142665474" height="13.39877300613496" as="geometry" />
        </mxCell>
        <mxCell id="nrmPXeRd82tsvhJIg-Bl-125" value="" style="group" vertex="1" connectable="0" parent="nrmPXeRd82tsvhJIg-Bl-117">
          <mxGeometry x="16.000787338165146" y="58.5" width="195.77559933097936" height="26" as="geometry" />
        </mxCell>
        <mxCell id="nrmPXeRd82tsvhJIg-Bl-126" value="write_seq" style="rounded=1;whiteSpace=wrap;html=1;shadow=0;glass=0;sketch=0;strokeColor=#000000;fontSize=20;align=center;fillColor=#FFFFFF;dashed=1;dashPattern=1 4;strokeWidth=1;perimeterSpacing=0;" vertex="1" parent="nrmPXeRd82tsvhJIg-Bl-125">
          <mxGeometry x="76.40023388526022" y="2.698895705521482" width="119.37536544571911" height="23.301104294478513" as="geometry" />
        </mxCell>
        <mxCell id="nrmPXeRd82tsvhJIg-Bl-127" value="&lt;font style=&quot;font-size: 12px&quot;&gt;axis_transfer&lt;/font&gt;" style="rounded=1;whiteSpace=wrap;html=1;shadow=0;glass=0;sketch=0;strokeWidth=1;fillColor=#a0522d;fontSize=12;align=center;fontColor=#ffffff;" vertex="1" parent="nrmPXeRd82tsvhJIg-Bl-125">
          <mxGeometry x="8.595026312091775" width="82.13025142665474" height="13.39877300613496" as="geometry" />
        </mxCell>
        <mxCell id="nrmPXeRd82tsvhJIg-Bl-128" value="" style="group" vertex="1" connectable="0" parent="1">
          <mxGeometry x="381.57635220125803" y="1057.25" width="70.44025157232704" height="30" as="geometry" />
        </mxCell>
        <mxCell id="nrmPXeRd82tsvhJIg-Bl-129" value="monitor" style="rounded=0;whiteSpace=wrap;html=1;strokeColor=#000000;fillColor=#FFFFFF;fontSize=20;" vertex="1" parent="nrmPXeRd82tsvhJIg-Bl-128">
          <mxGeometry width="67.01509433962265" height="30" as="geometry" />
        </mxCell>
        <mxCell id="nrmPXeRd82tsvhJIg-Bl-130" value="" style="group" vertex="1" connectable="0" parent="1">
          <mxGeometry x="512.1109433962265" y="1057.25" width="64.71698113207547" height="30" as="geometry" />
        </mxCell>
        <mxCell id="nrmPXeRd82tsvhJIg-Bl-131" value="" style="group" vertex="1" connectable="0" parent="nrmPXeRd82tsvhJIg-Bl-130">
          <mxGeometry width="61.63522012578616" height="30" as="geometry" />
        </mxCell>
        <mxCell id="nrmPXeRd82tsvhJIg-Bl-132" value="sbd" style="rounded=0;whiteSpace=wrap;html=1;shadow=0;glass=0;sketch=0;fillColor=#60a917;fontSize=20;fontColor=#ffffff;" vertex="1" parent="nrmPXeRd82tsvhJIg-Bl-131">
          <mxGeometry x="3.0817610062893084" width="58.55345911949686" height="30" as="geometry" />
        </mxCell>
        <mxCell id="nrmPXeRd82tsvhJIg-Bl-133" value="" style="endArrow=classic;html=1;entryX=1;entryY=0.5;entryDx=0;entryDy=0;exitX=0;exitY=0.5;exitDx=0;exitDy=0;" edge="1" parent="1" source="nrmPXeRd82tsvhJIg-Bl-136" target="nrmPXeRd82tsvhJIg-Bl-132">
          <mxGeometry width="50" height="50" relative="1" as="geometry">
            <mxPoint x="2610.5071698113206" y="550" as="sourcePoint" />
            <mxPoint x="2654.5323270440254" y="500" as="targetPoint" />
          </mxGeometry>
        </mxCell>
        <mxCell id="nrmPXeRd82tsvhJIg-Bl-134" value="driver" style="rounded=0;whiteSpace=wrap;html=1;shadow=0;glass=0;sketch=0;strokeColor=#000000;fontSize=20;" vertex="1" parent="1">
          <mxGeometry x="707.3625157232705" y="1057.25" width="52.83018867924528" height="30" as="geometry" />
        </mxCell>
        <mxCell id="nrmPXeRd82tsvhJIg-Bl-135" value="" style="group" vertex="1" connectable="0" parent="1">
          <mxGeometry x="624.6920754716982" y="1057.25" width="70.44025157232704" height="30" as="geometry" />
        </mxCell>
        <mxCell id="nrmPXeRd82tsvhJIg-Bl-136" value="monitor" style="rounded=0;whiteSpace=wrap;html=1;strokeColor=#000000;fillColor=#FFFFFF;fontSize=20;" vertex="1" parent="nrmPXeRd82tsvhJIg-Bl-135">
          <mxGeometry x="3.4251572327043904" width="67.01509433962265" height="30" as="geometry" />
        </mxCell>
        <mxCell id="nrmPXeRd82tsvhJIg-Bl-137" value="" style="group" vertex="1" connectable="0" parent="1">
          <mxGeometry x="-207.03999999999996" y="670" width="650" height="100" as="geometry" />
        </mxCell>
        <mxCell id="nrmPXeRd82tsvhJIg-Bl-138" value="&lt;font style=&quot;font-size: 20px&quot;&gt;v_sqr&lt;/font&gt;" style="rounded=0;whiteSpace=wrap;html=1;align=center;verticalAlign=top;horizontal=1;labelPosition=center;verticalLabelPosition=middle;fillColor=#b1ddf0;" vertex="1" parent="nrmPXeRd82tsvhJIg-Bl-137">
          <mxGeometry width="650" height="100" as="geometry" />
        </mxCell>
        <mxCell id="nrmPXeRd82tsvhJIg-Bl-139" value="axis_w_mst_sqr" style="rounded=0;whiteSpace=wrap;html=1;fontSize=20;" vertex="1" parent="nrmPXeRd82tsvhJIg-Bl-137">
          <mxGeometry x="32.14285714285715" y="50" width="182.14285714285714" height="25" as="geometry" />
        </mxCell>
        <mxCell id="nrmPXeRd82tsvhJIg-Bl-140" value="axis_r_mst_sqr" style="rounded=0;whiteSpace=wrap;html=1;fontSize=20;" vertex="1" parent="nrmPXeRd82tsvhJIg-Bl-137">
          <mxGeometry x="254.70428571428573" y="50" width="171.42857142857142" height="25" as="geometry" />
        </mxCell>
        <mxCell id="nrmPXeRd82tsvhJIg-Bl-141" value="axis_cmd_sqr" style="rounded=0;whiteSpace=wrap;html=1;fontSize=20;" vertex="1" parent="nrmPXeRd82tsvhJIg-Bl-137">
          <mxGeometry x="478.39142857142866" y="50" width="150" height="25" as="geometry" />
        </mxCell>
        <mxCell id="nrmPXeRd82tsvhJIg-Bl-142" value="" style="endArrow=classic;html=1;entryX=0.5;entryY=0;entryDx=0;entryDy=0;exitX=0.5;exitY=1;exitDx=0;exitDy=0;dashed=1;strokeWidth=2;" edge="1" parent="1" source="nrmPXeRd82tsvhJIg-Bl-141" target="nrmPXeRd82tsvhJIg-Bl-162">
          <mxGeometry width="50" height="50" relative="1" as="geometry">
            <mxPoint x="366.01" y="660" as="sourcePoint" />
            <mxPoint x="282.959685534591" y="1050" as="targetPoint" />
          </mxGeometry>
        </mxCell>
        <mxCell id="nrmPXeRd82tsvhJIg-Bl-143" value="" style="endArrow=classic;html=1;dashed=1;exitX=0.505;exitY=1.021;exitDx=0;exitDy=0;exitPerimeter=0;entryX=0.5;entryY=0;entryDx=0;entryDy=0;strokeWidth=2;" edge="1" parent="1" source="nrmPXeRd82tsvhJIg-Bl-126" target="nrmPXeRd82tsvhJIg-Bl-139">
          <mxGeometry width="50" height="50" relative="1" as="geometry">
            <mxPoint x="-17.039999999999964" y="560" as="sourcePoint" />
            <mxPoint x="-48.039999999999964" y="652" as="targetPoint" />
          </mxGeometry>
        </mxCell>
        <mxCell id="nrmPXeRd82tsvhJIg-Bl-144" value="" style="endArrow=classic;html=1;dashed=1;exitX=0.5;exitY=1;exitDx=0;exitDy=0;entryX=0.5;entryY=0;entryDx=0;entryDy=0;strokeWidth=2;" edge="1" parent="1" source="nrmPXeRd82tsvhJIg-Bl-123" target="nrmPXeRd82tsvhJIg-Bl-141">
          <mxGeometry width="50" height="50" relative="1" as="geometry">
            <mxPoint x="-47.054573170732056" y="514.989323190184" as="sourcePoint" />
            <mxPoint x="-42.039999999999964" y="730" as="targetPoint" />
          </mxGeometry>
        </mxCell>
        <mxCell id="nrmPXeRd82tsvhJIg-Bl-145" value="" style="endArrow=classic;html=1;dashed=1;exitX=0.5;exitY=1;exitDx=0;exitDy=0;entryX=0.5;entryY=0;entryDx=0;entryDy=0;strokeWidth=2;" edge="1" parent="1" source="nrmPXeRd82tsvhJIg-Bl-120" target="nrmPXeRd82tsvhJIg-Bl-140">
          <mxGeometry width="50" height="50" relative="1" as="geometry">
            <mxPoint x="-37.054573170732056" y="524.989323190184" as="sourcePoint" />
            <mxPoint x="-32.039999999999964" y="740" as="targetPoint" />
          </mxGeometry>
        </mxCell>
        <mxCell id="nrmPXeRd82tsvhJIg-Bl-146" value="" style="endArrow=none;html=1;shadow=0;strokeColor=#000000;strokeWidth=1;entryX=0;entryY=0.5;entryDx=0;entryDy=0;" edge="1" parent="1" target="nrmPXeRd82tsvhJIg-Bl-111">
          <mxGeometry width="50" height="50" relative="1" as="geometry">
            <mxPoint x="109.99999999999909" y="1410" as="sourcePoint" />
            <mxPoint x="482.96000000000004" y="1500" as="targetPoint" />
          </mxGeometry>
        </mxCell>
        <mxCell id="nrmPXeRd82tsvhJIg-Bl-147" value="" style="endArrow=classic;html=1;shadow=0;strokeColor=#000000;strokeWidth=1;entryX=0.5;entryY=1;entryDx=0;entryDy=0;" edge="1" parent="1" target="nrmPXeRd82tsvhJIg-Bl-136">
          <mxGeometry width="50" height="50" relative="1" as="geometry">
            <mxPoint x="661.96" y="1230" as="sourcePoint" />
            <mxPoint x="1032.96" y="1300" as="targetPoint" />
          </mxGeometry>
        </mxCell>
        <mxCell id="nrmPXeRd82tsvhJIg-Bl-148" value="&lt;font style=&quot;font-size: 14px&quot;&gt;ack_if&lt;/font&gt;" style="edgeLabel;html=1;align=center;verticalAlign=middle;resizable=0;points=[];" vertex="1" connectable="0" parent="nrmPXeRd82tsvhJIg-Bl-147">
          <mxGeometry x="-0.2245" y="-1" relative="1" as="geometry">
            <mxPoint x="-1.21" as="offset" />
          </mxGeometry>
        </mxCell>
        <mxCell id="nrmPXeRd82tsvhJIg-Bl-149" value="" style="endArrow=classic;html=1;shadow=0;strokeColor=#000000;strokeWidth=1;exitX=0.5;exitY=1;exitDx=0;exitDy=0;" edge="1" parent="1" source="nrmPXeRd82tsvhJIg-Bl-134">
          <mxGeometry width="50" height="50" relative="1" as="geometry">
            <mxPoint x="671.96" y="1240" as="sourcePoint" />
            <mxPoint x="732.96" y="1230" as="targetPoint" />
          </mxGeometry>
        </mxCell>
        <mxCell id="nrmPXeRd82tsvhJIg-Bl-150" value="&lt;font style=&quot;font-size: 20px&quot;&gt;dxegn&lt;/font&gt;" style="rounded=0;whiteSpace=wrap;html=1;fillColor=#b1ddf0;align=center;verticalAlign=top;horizontal=1;labelPosition=center;verticalLabelPosition=middle;" vertex="1" parent="1">
          <mxGeometry x="469.62" y="1217.25" width="160.38" height="90" as="geometry" />
        </mxCell>
        <mxCell id="nrmPXeRd82tsvhJIg-Bl-151" value="driver" style="rounded=0;whiteSpace=wrap;html=1;shadow=0;glass=0;sketch=0;strokeColor=#000000;fontSize=20;" vertex="1" parent="1">
          <mxGeometry x="566.4825157232705" y="1260" width="52.83018867924528" height="30" as="geometry" />
        </mxCell>
        <mxCell id="nrmPXeRd82tsvhJIg-Bl-152" value="" style="group" vertex="1" connectable="0" parent="1">
          <mxGeometry x="479.7820754716982" y="1260" width="70.44025157232704" height="30" as="geometry" />
        </mxCell>
        <mxCell id="nrmPXeRd82tsvhJIg-Bl-153" value="monitor" style="rounded=0;whiteSpace=wrap;html=1;strokeColor=#000000;fillColor=#FFFFFF;fontSize=20;" vertex="1" parent="nrmPXeRd82tsvhJIg-Bl-152">
          <mxGeometry x="3.4251572327043904" width="67.01509433962265" height="30" as="geometry" />
        </mxCell>
        <mxCell id="nrmPXeRd82tsvhJIg-Bl-154" value="" style="endArrow=classic;html=1;entryX=0;entryY=0.5;entryDx=0;entryDy=0;" edge="1" parent="1" target="nrmPXeRd82tsvhJIg-Bl-153">
          <mxGeometry width="50" height="50" relative="1" as="geometry">
            <mxPoint x="419.9999999999991" y="1410" as="sourcePoint" />
            <mxPoint x="400" y="1310" as="targetPoint" />
            <Array as="points">
              <mxPoint x="420" y="1275" />
            </Array>
          </mxGeometry>
        </mxCell>
        <mxCell id="nrmPXeRd82tsvhJIg-Bl-155" value="" style="endArrow=classic;html=1;exitX=1;exitY=0.5;exitDx=0;exitDy=0;" edge="1" parent="1" source="nrmPXeRd82tsvhJIg-Bl-151">
          <mxGeometry width="50" height="50" relative="1" as="geometry">
            <mxPoint x="700" y="1350" as="sourcePoint" />
            <mxPoint x="689.9999999999991" y="1410" as="targetPoint" />
            <Array as="points">
              <mxPoint x="690" y="1275" />
            </Array>
          </mxGeometry>
        </mxCell>
        <mxCell id="nrmPXeRd82tsvhJIg-Bl-156" value="" style="group" vertex="1" connectable="0" parent="1">
          <mxGeometry x="279.9961006289308" y="1040" width="70.44025157232704" height="90" as="geometry" />
        </mxCell>
        <mxCell id="nrmPXeRd82tsvhJIg-Bl-157" value="" style="group" vertex="1" connectable="0" parent="nrmPXeRd82tsvhJIg-Bl-156">
          <mxGeometry y="55" width="70.44025157232704" height="35" as="geometry" />
        </mxCell>
        <mxCell id="nrmPXeRd82tsvhJIg-Bl-158" value="" style="rounded=0;whiteSpace=wrap;html=1;shadow=0;glass=0;sketch=0;strokeColor=#000000;align=center;" vertex="1" parent="nrmPXeRd82tsvhJIg-Bl-157">
          <mxGeometry x="32.57861635220126" width="4.40251572327044" height="5" as="geometry" />
        </mxCell>
        <mxCell id="nrmPXeRd82tsvhJIg-Bl-159" value="" style="group" vertex="1" connectable="0" parent="nrmPXeRd82tsvhJIg-Bl-157">
          <mxGeometry y="5" width="70.44025157232704" height="30" as="geometry" />
        </mxCell>
        <mxCell id="nrmPXeRd82tsvhJIg-Bl-160" value="driver" style="rounded=0;whiteSpace=wrap;html=1;strokeColor=#000000;fillColor=#FFFFFF;fontSize=20;" vertex="1" parent="nrmPXeRd82tsvhJIg-Bl-159">
          <mxGeometry x="8.80503144654088" width="53.80754716981132" height="30" as="geometry" />
        </mxCell>
        <mxCell id="nrmPXeRd82tsvhJIg-Bl-161" value="" style="group" vertex="1" connectable="0" parent="nrmPXeRd82tsvhJIg-Bl-156">
          <mxGeometry x="17.61006289308193" width="35.22012578616352" height="34" as="geometry" />
        </mxCell>
        <mxCell id="nrmPXeRd82tsvhJIg-Bl-162" value="sqr" style="rounded=0;whiteSpace=wrap;html=1;strokeColor=#36393d;fillColor=#ffff88;fontSize=20;" vertex="1" parent="nrmPXeRd82tsvhJIg-Bl-161">
          <mxGeometry width="35.22012578616352" height="30" as="geometry" />
        </mxCell>
        <mxCell id="nrmPXeRd82tsvhJIg-Bl-163" value="" style="ellipse;whiteSpace=wrap;html=1;aspect=fixed;rounded=0;shadow=0;glass=0;sketch=0;strokeColor=#000000;align=center;" vertex="1" parent="nrmPXeRd82tsvhJIg-Bl-161">
          <mxGeometry x="15.849056603773585" y="30" width="3.5220125786163523" height="3.5220125786163523" as="geometry" />
        </mxCell>
        <mxCell id="nrmPXeRd82tsvhJIg-Bl-164" value="" style="endArrow=classic;html=1;exitX=0.5;exitY=1;exitDx=0;exitDy=0;entryX=0.5;entryY=0;entryDx=0;entryDy=0;" edge="1" parent="nrmPXeRd82tsvhJIg-Bl-156" source="nrmPXeRd82tsvhJIg-Bl-163" target="nrmPXeRd82tsvhJIg-Bl-158">
          <mxGeometry width="50" height="50" relative="1" as="geometry">
            <mxPoint x="2390.381383647799" y="610" as="sourcePoint" />
            <mxPoint x="2434.406540880503" y="560" as="targetPoint" />
          </mxGeometry>
        </mxCell>
      </root>
    </mxGraphModel>
  </diagram>
</mxfile>
